<svg width="52" height="52" viewBox="0 0 52 52" fill="none" xmlns="http://www.w3.org/2000/svg">
<circle cx="26" cy="26" r="26" fill="#E2E5EB"/>
<path fill-rule="evenodd" clip-rule="evenodd" d="M24.3451 9L26.1927 10.8293L24.7339 12.2736C25.0206 12.2579 25.3094 12.25 25.6 12.25C34.2156 12.25 41.2 19.2344 41.2 27.85C41.2 36.4656 34.2156 43.45 25.6 43.45C16.9844 43.45 10 36.4656 10 27.85C10 23.5021 11.7787 19.5697 14.6481 16.7407C14.8947 16.421 15.2817 16.215 15.7167 16.215C16.4616 16.215 17.0655 16.8188 17.0655 17.5637C17.0655 17.9884 16.8692 18.3672 16.5625 18.6144C14.1191 20.978 12.6 24.2912 12.6 27.9592C12.6 35.1389 18.4203 40.9592 25.6 40.9592C32.7797 40.9592 38.6 35.1389 38.6 27.9592C38.6 20.7795 32.7797 14.9592 25.6 14.9592C25.3613 14.9592 25.124 14.9656 24.8885 14.9783L26.1938 16.2707L24.3462 18.1L19.75 13.5494L21.5976 11.7201L21.5977 11.7201L24.3451 9Z" fill="black"/>
<path fill-rule="evenodd" clip-rule="evenodd" d="M32.75 25.3179C32.75 28.2272 30.3325 30.5859 27.3394 30.5859H24.5798V31.7169H27.884C28.1649 31.7169 28.3925 31.9386 28.3925 32.2121V34.3334C28.3925 34.6068 28.1649 34.8285 27.884 34.8285H24.5798V36.4547C24.5798 36.7281 24.3521 36.9498 24.0713 36.9498H21.8926C21.6117 36.9498 21.384 36.7281 21.384 36.4547V34.8285H20.2585C19.9777 34.8285 19.75 34.6068 19.75 34.3334V32.2121C19.75 31.9387 19.9777 31.717 20.2585 31.717H21.384V30.5859H20.2585C19.9777 30.5859 19.75 30.3642 19.75 30.0908V27.9695C19.75 27.696 19.9777 27.4744 20.2585 27.4744H21.384V20.5449C21.384 20.2715 21.6117 20.0498 21.8926 20.0498H27.3394C30.3228 20.0498 32.75 22.413 32.75 25.3179ZM27.3393 23.1614H24.5798V27.4744H27.3393C28.5606 27.4744 29.5542 26.5069 29.5542 25.3179C29.5542 24.1288 28.5606 23.1614 27.3393 23.1614Z" fill="black"/>
</svg>
