<svg width="52" height="52" viewBox="0 0 52 52" fill="none" xmlns="http://www.w3.org/2000/svg">
<circle cx="26" cy="26" r="26" fill="#E2E5EB"/>
<path fill-rule="evenodd" clip-rule="evenodd" d="M21.8205 32.8465C22.9263 31.4618 23.4792 29.3296 23.4792 26.45C23.4792 23.6176 22.9263 21.5012 21.8205 20.1007C20.7148 18.7002 19.0173 18 16.7279 18C14.4385 18 12.741 18.7002 11.6353 20.1007C10.5451 21.5012 10 23.6176 10 26.45C10 29.3296 10.5451 31.4618 11.6353 32.8465C12.741 34.2155 14.4385 34.9 16.7279 34.9C19.0173 34.9 20.7148 34.2155 21.8205 32.8465ZM19.2976 23.5468C19.391 24.0503 19.4378 24.6247 19.4378 25.2698V27.6066C19.4378 29.007 19.2509 30.0534 18.8771 30.7458C18.5033 31.4224 17.7869 31.7608 16.7279 31.7608C16.1984 31.7608 15.7545 31.6742 15.3963 31.5011C15.0537 31.328 14.7812 31.0684 14.5787 30.7222C14.3763 30.376 14.2283 29.9433 14.1349 29.424C14.057 28.9047 14.0181 28.2989 14.0181 27.6066V25.2698C14.0181 23.9323 14.2049 22.9095 14.5787 22.2014C14.9525 21.4933 15.6689 21.1392 16.7279 21.1392C17.2574 21.1392 17.6935 21.2337 18.0361 21.4225C18.3943 21.6113 18.6746 21.8867 18.8771 22.2486C19.0796 22.5948 19.2197 23.0275 19.2976 23.5468Z" fill="black"/>
<path fill-rule="evenodd" clip-rule="evenodd" d="M41.2 23.268C41.2 26.1774 38.7825 28.5361 35.7894 28.5361H33.0298V29.6671H36.334C36.6149 29.6671 36.8425 29.8888 36.8425 30.1623V32.2836C36.8425 32.557 36.6149 32.7787 36.334 32.7787H33.0298V34.4049C33.0298 34.6783 32.8021 34.9 32.5213 34.9H30.3426C30.0617 34.9 29.834 34.6783 29.834 34.4049V32.7787H28.7085C28.4277 32.7787 28.2 32.557 28.2 32.2836V30.1623C28.2 29.8889 28.4277 29.6672 28.7085 29.6672H29.834V28.5361H28.7085C28.4277 28.5361 28.2 28.3144 28.2 28.041V25.9197C28.2 25.6462 28.4277 25.4245 28.7085 25.4245H29.834V18.4951C29.834 18.2217 30.0617 18 30.3426 18H35.7894C38.7728 18 41.2 20.3632 41.2 23.268ZM35.7893 21.1115H33.0298V25.4245H35.7893C37.0106 25.4245 38.0042 24.4571 38.0042 23.268C38.0042 22.079 37.0106 21.1115 35.7893 21.1115Z" fill="black"/>
</svg>
