<svg width="52" height="52" viewBox="0 0 52 52" fill="none" xmlns="http://www.w3.org/2000/svg">
<circle cx="26" cy="26" r="26" fill="#E2E5EB"/>
<path fill-rule="evenodd" clip-rule="evenodd" d="M31.1875 18.5625V37.5625H32.75C34.0962 37.5625 35.1875 36.4712 35.1875 35.125V19.375C35.1875 18.9263 34.8237 18.5625 34.375 18.5625H31.1875Z" fill="black"/>
<path fill-rule="evenodd" clip-rule="evenodd" d="M17.1875 35.125C17.1875 36.4712 18.2788 37.5625 19.625 37.5625H28.1875V18.5625H18C17.5513 18.5625 17.1875 18.9263 17.1875 19.375V35.125ZM19.6875 33.6875C19.6875 34.585 20.415 35.3125 21.3125 35.3125C22.21 35.3125 22.9375 34.585 22.9375 33.6875V31.25C22.9375 30.3525 22.21 29.625 21.3125 29.625C20.415 29.625 19.6875 30.3525 19.6875 31.25V33.6875Z" fill="black"/>
<path d="M17.8086 24.75H17.25C15.4551 24.75 14 23.2949 14 21.5V19.1364V18.25C14 16.4551 15.4551 15 17.25 15H35.125C36.9199 15 38.375 16.4551 38.375 18.25V21.5C38.375 23.2949 36.9199 24.75 35.125 24.75H34.5664" stroke="black" stroke-width="3.25"/>
</svg>
