<svg width="44" height="44" viewBox="0 0 44 44" fill="none" xmlns="http://www.w3.org/2000/svg">
<circle cx="22" cy="22" r="22" fill="url(#paint0_linear)"/>
<path d="M27.6282 23.8037C28.8282 23.8037 29.8002 24.7757 29.8002 25.9757V26.8025H29.7942C29.7534 27.7385 29.4966 28.9109 28.4466 29.8685C27.2994 30.9161 25.3182 31.6001 22.0002 31.6001C18.681 31.6001 16.701 30.9161 15.5538 29.8685C14.5038 28.9109 14.247 27.7373 14.2062 26.8025H14.2002V25.9745C14.2002 24.7757 15.1722 23.8037 16.3722 23.8037H27.6282Z" fill="white"/>
<path d="M17.8 13.5999C17.3226 13.5999 16.8648 13.7896 16.5272 14.1271C16.1896 14.4647 16 14.9225 16 15.3999V20.1999C16 20.6773 16.1896 21.1352 16.5272 21.4727C16.8648 21.8103 17.3226 21.9999 17.8 21.9999H26.2C26.6774 21.9999 27.1352 21.8103 27.4728 21.4727C27.8104 21.1352 28 20.6773 28 20.1999V15.3999C28 14.9225 27.8104 14.4647 27.4728 14.1271C27.1352 13.7896 26.6774 13.5999 26.2 13.5999H22.6V12.9999C22.6034 12.9202 22.5902 12.8407 22.5612 12.7664C22.5323 12.692 22.4882 12.6245 22.4318 12.5681C22.3754 12.5117 22.3079 12.4676 22.2336 12.4387C22.1592 12.4097 22.0797 12.3965 22 12.3999C21.6688 12.3999 21.4 12.6759 21.4 12.9999V13.5999H17.8ZM18.4 17.7999C18.4 17.4817 18.5264 17.1765 18.7515 16.9514C18.9765 16.7264 19.2817 16.5999 19.6 16.5999C19.9183 16.5999 20.2235 16.7264 20.4485 16.9514C20.6736 17.1765 20.8 17.4817 20.8 17.7999C20.8 18.1182 20.6736 18.4234 20.4485 18.6485C20.2235 18.8735 19.9183 18.9999 19.6 18.9999C19.2817 18.9999 18.9765 18.8735 18.7515 18.6485C18.5264 18.4234 18.4 18.1182 18.4 17.7999ZM23.2 17.7999C23.2 17.4817 23.3264 17.1765 23.5515 16.9514C23.7765 16.7264 24.0817 16.5999 24.4 16.5999C24.7183 16.5999 25.0235 16.7264 25.2485 16.9514C25.4736 17.1765 25.6 17.4817 25.6 17.7999C25.6 18.1182 25.4736 18.4234 25.2485 18.6485C25.0235 18.8735 24.7183 18.9999 24.4 18.9999C24.0817 18.9999 23.7765 18.8735 23.5515 18.6485C23.3264 18.4234 23.2 18.1182 23.2 17.7999Z" fill="white"/>
<defs>
<linearGradient id="paint0_linear" x1="1.63913e-07" y1="22" x2="44" y2="22" gradientUnits="userSpaceOnUse">
<stop stop-color="#678BE7"/>
<stop offset="0.0001" stop-color="#688BE7"/>
<stop offset="1" stop-color="#A263DF"/>
</linearGradient>
</defs>
</svg>
