<svg width="25" height="26" viewBox="0 0 25 26" fill="none" xmlns="http://www.w3.org/2000/svg">
<path d="M0.2 12.8177C0.0895431 12.8177 0 12.7282 0 12.6177V7.19951C0 7.08905 0.0895431 6.99951 0.2 6.99951H2.29545C2.73674 6.99951 3.11269 7.08379 3.4233 7.25235C3.7339 7.41902 3.97064 7.65103 4.13352 7.94838C4.2983 8.24383 4.38068 8.58474 4.38068 8.9711C4.38068 9.35747 4.29735 9.69838 4.13068 9.99383C3.96402 10.2874 3.72254 10.5175 3.40625 10.6842C3.09186 10.8489 2.71117 10.9313 2.2642 10.9313H1.23011V12.6177C1.23011 12.7282 1.14057 12.8177 1.03011 12.8177H0.2ZM1.23011 9.94553H2.06534C2.41761 9.94553 2.67992 9.85557 2.85227 9.67565C3.02652 9.49383 3.11364 9.25898 3.11364 8.9711C3.11364 8.68133 3.02652 8.44838 2.85227 8.27224C2.67992 8.09421 2.41572 8.00519 2.05966 8.00519H1.23011V9.94553Z" fill="#343A40"/>
<path d="M7.74219 12.8177H5.87969C5.76923 12.8177 5.67969 12.7282 5.67969 12.6177V7.19951C5.67969 7.08905 5.76923 6.99951 5.87969 6.99951H7.75923C8.34446 6.99951 8.84825 7.11599 9.2706 7.34894C9.69484 7.58 10.0206 7.91239 10.2479 8.3461C10.4751 8.77981 10.5888 9.29875 10.5888 9.90292C10.5888 10.509 10.4742 11.0298 10.245 11.4654C10.0178 11.901 9.69105 12.2353 9.26491 12.4683C8.84067 12.7012 8.3331 12.8177 7.74219 12.8177ZM6.9098 11.7637H7.69105C8.2384 11.7637 8.65317 11.616 8.93537 11.3205C9.21946 11.0251 9.36151 10.5525 9.36151 9.90292C9.36151 9.25709 9.21946 8.78739 8.93537 8.49383C8.65317 8.20027 8.23935 8.05349 7.69389 8.05349H6.9098V11.7637Z" fill="#343A40"/>
<path d="M12.2 12.8177C12.0895 12.8177 12 12.7282 12 12.6177V7.19951C12 7.08905 12.0895 6.99951 12.2 6.99951H15.6523C15.7627 6.99951 15.8523 7.08905 15.8523 7.19951V7.81372C15.8523 7.92417 15.7627 8.01372 15.6523 8.01372H13.2301V9.40008H15.3966C15.507 9.40008 15.5966 9.48962 15.5966 9.60008V10.2143C15.5966 10.3247 15.507 10.4143 15.3966 10.4143H13.2301V12.6177C13.2301 12.7282 13.1406 12.8177 13.0301 12.8177H12.2Z" fill="#343A40"/>
<path fill-rule="evenodd" clip-rule="evenodd" d="M12.4998 23.9992L5.2 23.9992C5.08955 23.9992 5 23.9096 5 23.7992L5 14.9993L3 14.9993L3 22.9992C3 23.35 3 23.6867 3 23.9996C3 25.1041 3.89536 25.9992 4.99989 25.9993L14.9771 25.9999C15.7839 25.9999 16.5567 25.6751 17.1211 25.0986L24.4291 17.6339C24.7951 17.2601 25 16.7579 25 16.2348L25 2.99994C25 2.64921 25 2.31253 25 1.99967C25 0.895103 24.1046 -5.72828e-05 23 -5.73794e-05L5 -5.70456e-05C3.89543 -5.71422e-05 3 0.895103 3 1.99967C3 2.31253 3 2.64921 3 2.99994L3 4.99949L5 4.99949L5 2.19994C5 2.08949 5.08955 1.99994 5.2 1.99994L22.8 1.99994C22.9105 1.99994 23 2.08949 23 2.19994L23 14.9999C23 15.5522 22.5523 15.9999 22 15.9999L16.9998 15.9999C15.8952 15.9999 14.9998 16.8953 14.9998 17.9999L14.9998 22.9996C14.9998 23.552 14.5521 23.9997 13.9997 23.9996C13.3685 23.9994 12.6456 23.9992 12.4998 23.9992Z" fill="#CED4DA"/>
</svg>
