<svg width="275" height="20" viewBox="0 0 275 20" fill="none" xmlns="http://www.w3.org/2000/svg">
<path d="M14.6308 13.2028L18.3492 0.43111H28.4533V19.0228H21.7981V5.38889L17.7025 19.0228H10.2658L6.17028 5.38889V19.0228H0V0.43111H10.9394L14.6308 13.2028Z" fill="#E30611"/>
<path d="M44.6512 5.95472V19.0228H37.9959V5.95472H30.3976V0.43111H52.3034V5.95472H44.6512Z" fill="#E30611"/>
<path d="M75.9751 12.8794C75.9751 14.065 75.7506 15.0799 75.3015 15.9242C74.8524 16.7505 74.1699 17.4331 73.2537 17.9719C72.3376 18.4929 71.188 18.8701 69.8049 19.1036C68.4217 19.3371 66.7961 19.4539 64.9279 19.4539C63.0238 19.4539 61.3802 19.3282 59.9971 19.0767C58.6139 18.8252 57.4643 18.43 56.5482 17.8911C55.6321 17.3522 54.9405 16.6607 54.4735 15.8164C54.0064 14.9721 53.737 13.9662 53.6651 12.7986H60.3204C60.3923 13.1938 60.5449 13.5171 60.7785 13.7686C61.012 14.0021 61.3263 14.1818 61.7215 14.3075C62.1167 14.4332 62.5837 14.5141 63.1226 14.55C63.6615 14.5859 64.2633 14.6039 64.9279 14.6039C66.4188 14.6039 67.5236 14.5231 68.2421 14.3614C68.9606 14.1997 69.3199 13.8674 69.3199 13.3644C69.3199 13.0232 69.0953 12.7807 68.6462 12.6369C68.2151 12.4753 67.6403 12.3675 66.9218 12.3136C66.2033 12.2597 65.377 12.2238 64.4429 12.2058C63.5268 12.1879 62.5837 12.143 61.6137 12.0711C60.6617 11.9813 59.7187 11.8376 58.7846 11.64C57.8685 11.4424 57.0512 11.146 56.3326 10.7508C55.6141 10.3377 55.0303 9.78982 54.5812 9.10722C54.1501 8.42463 53.9346 7.55343 53.9346 6.49361C53.9346 5.29009 54.1771 4.27519 54.6621 3.44889C55.165 2.62259 55.8836 1.95796 56.8176 1.455C57.7517 0.934074 58.8834 0.565833 60.2126 0.350278C61.5599 0.116759 63.0687 0 64.7393 0C66.4458 0 67.9547 0.125741 69.266 0.377222C70.5952 0.610741 71.7179 0.996944 72.634 1.53583C73.5681 2.05676 74.2866 2.73935 74.7896 3.58361C75.3105 4.40991 75.6069 5.41583 75.6787 6.60139H69.0235C68.8798 5.84695 68.4397 5.37093 67.7032 5.17333C66.9847 4.95778 65.9967 4.85 64.7393 4.85C64.1106 4.85 63.5358 4.86796 63.0149 4.90389C62.5119 4.92185 62.0808 4.97574 61.7215 5.06556C61.3623 5.13741 61.0749 5.25417 60.8593 5.41584C60.6617 5.5775 60.5629 5.79306 60.5629 6.0625C60.5629 6.4038 60.7785 6.65528 61.2096 6.81695C61.6586 6.96065 62.2424 7.06843 62.961 7.14028C63.6974 7.19417 64.5237 7.23908 65.4399 7.275C66.356 7.29296 67.299 7.34685 68.269 7.43667C69.239 7.52648 70.1821 7.67019 71.0982 7.86778C72.0143 8.04741 72.8316 8.3438 73.5501 8.75695C74.2866 9.15213 74.8704 9.68204 75.3015 10.3467C75.7506 11.0113 75.9751 11.8556 75.9751 12.8794Z" fill="#E30611"/>
<path d="M106.09 13.5531C106.09 15.3494 105.542 16.7145 104.446 17.6486C103.35 18.5647 101.671 19.0228 99.4073 19.0228H84.9382V0.43111H100.054C101.796 0.43111 103.153 0.817315 104.123 1.58972C105.111 2.36213 105.605 3.46685 105.605 4.90389C105.605 5.31704 105.56 5.73019 105.47 6.14333C105.38 6.55648 105.218 6.95167 104.985 7.32889C104.751 7.70611 104.437 8.04741 104.042 8.35278C103.647 8.65815 103.144 8.91861 102.533 9.13417C103.88 9.52935 104.805 10.1221 105.308 10.9125C105.829 11.6849 106.09 12.5651 106.09 13.5531ZM99.2996 12.7447C99.2996 12.3136 99.1289 11.9813 98.7876 11.7478C98.4463 11.5143 98.0152 11.3975 97.4943 11.3975H91.5665V14.8194H97.4943C98.0691 14.8194 98.5092 14.6937 98.8146 14.4422C99.1379 14.1907 99.2996 13.8494 99.2996 13.4183V12.7447ZM98.8146 5.87389C98.8146 5.49667 98.6619 5.20028 98.3565 4.98472C98.0511 4.7512 97.638 4.63444 97.1171 4.63444H91.5665V7.49056H97.1171C97.638 7.49056 98.0511 7.38278 98.3565 7.16722C98.6619 6.95167 98.8146 6.65528 98.8146 6.27806V5.87389Z" fill="#E30611"/>
<path d="M123.837 0.43111L131.597 19.0228H124.726L123.271 15.5469H114.002L112.547 19.0228H106.619L114.487 0.43111H123.837ZM116.104 10.5892H121.223L118.69 4.47278L116.104 10.5892Z" fill="#E30611"/>
<path d="M150.116 12.6908V0.43111H156.421V19.0228H146.883L139.554 6.79V19.0228H133.249V0.43111H142.787L150.116 12.6908Z" fill="#E30611"/>
<path d="M165.875 6.57445H168.947L175.144 0.43111H182.742L173.904 9.18806L183.146 19.0228H175.036L168.435 12.0442H165.875V19.0228H159.22V0.43111H165.875V6.57445Z" fill="#E30611"/>
<path d="M208.54 12.6908V0.43111H214.845V19.0228H205.307L197.978 6.79V19.0228H191.673V0.43111H201.211L208.54 12.6908Z" fill="#BBC1C7"/>
<path d="M241.759 9.51139C241.759 11.5232 241.481 13.1758 240.924 14.4692C240.367 15.7445 239.559 16.7594 238.499 17.5139C237.439 18.2504 236.146 18.7533 234.619 19.0228C233.092 19.3102 231.349 19.4539 229.391 19.4539C227.451 19.4539 225.709 19.3102 224.164 19.0228C222.637 18.7533 221.344 18.2504 220.284 17.5139C219.242 16.7594 218.443 15.7445 217.886 14.4692C217.329 13.1758 217.051 11.5232 217.051 9.51139C217.051 7.60732 217.329 6.04454 217.886 4.82306C218.443 3.58361 219.242 2.60463 220.284 1.88611C221.344 1.16759 222.637 0.67361 224.164 0.404166C225.709 0.134722 227.451 0 229.391 0C231.332 0 233.065 0.134722 234.592 0.404166C236.137 0.67361 237.439 1.16759 238.499 1.88611C239.559 2.60463 240.367 3.58361 240.924 4.82306C241.481 6.04454 241.759 7.60732 241.759 9.51139ZM234.969 8.64917C234.969 7.91269 234.843 7.31991 234.592 6.87083C234.358 6.4038 233.999 6.04454 233.514 5.79306C233.047 5.54158 232.463 5.37093 231.763 5.28111C231.08 5.1913 230.29 5.14639 229.391 5.14639C228.493 5.14639 227.694 5.1913 226.993 5.28111C226.311 5.37093 225.736 5.54158 225.269 5.79306C224.802 6.04454 224.443 6.4038 224.191 6.87083C223.958 7.31991 223.841 7.91269 223.841 8.64917V10.7508C223.841 11.5771 223.958 12.2328 224.191 12.7178C224.443 13.1848 224.802 13.5351 225.269 13.7686C225.736 14.0021 226.311 14.1548 226.993 14.2267C227.694 14.2806 228.493 14.3075 229.391 14.3075C230.29 14.3075 231.08 14.2806 231.763 14.2267C232.463 14.1548 233.047 14.0021 233.514 13.7686C233.999 13.5351 234.358 13.1848 234.592 12.7178C234.843 12.2328 234.969 11.5771 234.969 10.7508V8.64917Z" fill="#BBC1C7"/>
<path d="M246.493 19.0228L242.666 0.43111H249.51L252.124 13.2028L255.357 0.43111H262.929L266 13.1758L268.749 0.43111H275L270.931 19.0228H261.555L258.51 6.52056L255.357 19.0228H246.493Z" fill="#BBC1C7"/>
</svg>
