<svg width="32" height="32" viewBox="0 0 32 32" fill="none" xmlns="http://www.w3.org/2000/svg">
<path fill-rule="evenodd" clip-rule="evenodd" d="M15.4998 26.9997L8.2 26.9997C8.08955 26.9997 8 26.9101 8 26.7997L8 17.9998L6 17.9998L6 25.9997C6 26.3505 6 26.6872 6 27.0001C6 28.1046 6.89536 28.9997 7.99989 28.9998L17.9771 29.0004C18.7839 29.0004 19.5567 28.6756 20.1211 28.0991L27.4291 20.6344C27.7951 20.2606 28 19.7584 28 19.2353L28 6.00043C28 5.64969 28 5.31302 28 5.00016C28 3.89559 27.1046 3.00043 26 3.00043L8 3.00043C6.89543 3.00043 6 3.89559 6 5.00016C6 5.31302 6 5.64969 6 6.00043L6 7.99998L8 7.99998L8 5.20043C8 5.08997 8.08955 5.00043 8.2 5.00043L25.8 5.00043C25.9105 5.00043 26 5.08997 26 5.20043L26 18.0004C26 18.5527 25.5523 19.0004 25 19.0004L19.9998 19.0004C18.8952 19.0004 17.9998 19.8958 17.9998 21.0004L17.9998 26.0001C17.9998 26.5525 17.5521 27.0002 16.9997 27.0001C16.3685 26.9999 15.6456 26.9997 15.4998 26.9997Z" fill="#969FA8"/>
<path d="M3.2 15.8182C3.08954 15.8182 3 15.7286 3 15.6182V10.2C3 10.0895 3.08954 10 3.2 10H5.29545C5.73674 10 6.11269 10.0843 6.4233 10.2528C6.7339 10.4195 6.97064 10.6515 7.13352 10.9489C7.2983 11.2443 7.38068 11.5852 7.38068 11.9716C7.38068 12.358 7.29735 12.6989 7.13068 12.9943C6.96402 13.2879 6.72254 13.518 6.40625 13.6847C6.09186 13.8494 5.71117 13.9318 5.2642 13.9318H4.23011V15.6182C4.23011 15.7286 4.14057 15.8182 4.03011 15.8182H3.2ZM4.23011 12.946H5.06534C5.41761 12.946 5.67992 12.8561 5.85227 12.6761C6.02652 12.4943 6.11364 12.2595 6.11364 11.9716C6.11364 11.6818 6.02652 11.4489 5.85227 11.2727C5.67992 11.0947 5.41572 11.0057 5.05966 11.0057H4.23011V12.946Z" fill="#969FA8"/>
<path d="M10.7422 15.8182H8.87969C8.76923 15.8182 8.67969 15.7286 8.67969 15.6182V10.2C8.67969 10.0895 8.76923 10 8.87969 10H10.7592C11.3445 10 11.8482 10.1165 12.2706 10.3494C12.6948 10.5805 13.0206 10.9129 13.2479 11.3466C13.4751 11.7803 13.5888 12.2992 13.5888 12.9034C13.5888 13.5095 13.4742 14.0303 13.245 14.4659C13.0178 14.9015 12.6911 15.2358 12.2649 15.4688C11.8407 15.7017 11.3331 15.8182 10.7422 15.8182ZM9.9098 14.7642H10.6911C11.2384 14.7642 11.6532 14.6165 11.9354 14.321C12.2195 14.0256 12.3615 13.553 12.3615 12.9034C12.3615 12.2576 12.2195 11.7879 11.9354 11.4943C11.6532 11.2008 11.2393 11.054 10.6939 11.054H9.9098V14.7642Z" fill="#969FA8"/>
<path d="M15.2 15.8182C15.0895 15.8182 15 15.7286 15 15.6182V10.2C15 10.0895 15.0895 10 15.2 10H18.6523C18.7627 10 18.8523 10.0895 18.8523 10.2V10.8142C18.8523 10.9247 18.7627 11.0142 18.6523 11.0142H16.2301V12.4006H18.3966C18.507 12.4006 18.5966 12.4901 18.5966 12.6006V13.2148C18.5966 13.3252 18.507 13.4148 18.3966 13.4148H16.2301V15.6182C16.2301 15.7286 16.1406 15.8182 16.0301 15.8182H15.2Z" fill="#969FA8"/>
</svg>
