<svg width="76" height="76" viewBox="0 0 76 76" fill="none" xmlns="http://www.w3.org/2000/svg">
<path d="M38 0C17.013 0 0 17.013 0 38C0 58.987 17.013 76 38 76C58.987 76 76 58.987 76 38C76 17.013 58.987 0 38 0Z" fill="#40B3E0"/>
<path d="M56.4901 21.8592L49.7026 56.0797C49.7026 56.0797 48.7535 58.4529 46.1431 57.3138L30.4805 45.3058L24.7853 42.5532L15.198 39.3256C15.198 39.3256 13.7267 38.8037 13.5842 37.6646C13.4417 36.5255 15.2455 35.9086 15.2455 35.9086L53.3571 20.9579C53.3571 20.9579 56.4898 19.5816 56.4898 21.8598" fill="white"/>
<path d="M29.2769 55.6948C29.2769 55.6948 28.8197 55.652 28.2497 53.8482C27.6806 52.0447 24.7852 42.5524 24.7852 42.5524L47.8043 27.9343C47.8043 27.9343 49.1334 27.1274 49.0859 27.9343C49.0859 27.9343 49.3231 28.0768 48.6109 28.7412C47.8993 29.4059 30.5282 45.0207 30.5282 45.0207" fill="#D2E5F1"/>
<path d="M36.4864 49.9092L30.2915 55.5575C30.2915 55.5575 29.807 55.9251 29.2773 55.6947L30.4637 45.2031" fill="#B5CFE4"/>
</svg>
