<svg width="77" height="76" viewBox="0 0 77 76" fill="none" xmlns="http://www.w3.org/2000/svg">
<g clip-path="url(#clip0)">
<circle cx="38.4639" cy="38" r="38" fill="white"/>
<path d="M38.4639 0C17.477 0 0.463867 17.0132 0.463867 38C0.463867 58.9868 17.477 76 38.4639 76C59.4507 76 76.4639 58.9868 76.4639 38C76.4639 17.0132 59.4507 0 38.4639 0ZM24.8076 15.0942C25.5905 15.0481 26.2982 15.516 26.8347 16.3466L32.03 26.1992C32.577 27.3666 32.2662 28.6167 31.4502 29.4509L29.0706 31.8305C28.9237 32.0318 28.8271 32.2585 28.8247 32.5077C29.7373 36.0401 32.5055 39.2985 34.9479 41.5393C37.3901 43.78 40.0151 46.8137 43.4226 47.5324C43.8438 47.6499 44.3598 47.692 44.6612 47.4119L47.4258 44.5962C48.3801 43.8729 49.7606 43.5223 50.7795 44.1138H50.8259L60.2006 49.6478C61.5767 50.5103 61.7192 52.1775 60.734 53.1917L54.2771 59.5977C53.3236 60.5755 52.0568 60.9043 50.826 60.9058C45.3827 60.7427 40.2394 58.071 36.0148 55.3255C29.0804 50.2808 22.7196 44.0239 18.7264 36.4646C17.1948 33.2948 15.3957 29.2503 15.5674 25.7123C15.5827 24.3812 15.9428 23.0773 16.8802 22.2194L23.3372 15.7623C23.8402 15.3343 24.3378 15.122 24.8076 15.0942Z" fill="url(#paint0_linear)"/>
</g>
<defs>
<linearGradient id="paint0_linear" x1="38.4639" y1="0" x2="38.4639" y2="76" gradientUnits="userSpaceOnUse">
<stop stop-color="#00C000"/>
<stop offset="1" stop-color="#00C000"/>
</linearGradient>
<clipPath id="clip0">
<rect width="76" height="76" fill="white" transform="translate(0.463867)"/>
</clipPath>
</defs>
</svg>
